<svg xmlns="http://www.w3.org/2000/svg" width="14.679" height="14.679" viewBox="0 0 14.679 14.679">
  <g id="production-overview" transform="translate(0.15 0.15)" style="isolation: isolate">
    <path id="Path_17" data-name="Path 17" d="M5.542,4.793H1.048A1.05,1.05,0,0,1,0,3.745v-2.7A1.05,1.05,0,0,1,1.048,0H5.542A1.05,1.05,0,0,1,6.59,1.049v2.7A1.05,1.05,0,0,1,5.542,4.793ZM1.048.9a.15.15,0,0,0-.15.15v2.7a.15.15,0,0,0,.15.15H5.542a.15.15,0,0,0,.15-.15v-2.7A.15.15,0,0,0,5.542.9Zm0,0" transform="translate(0 0)" stroke-width="0.3"/>
    <path id="Path_18" data-name="Path 18" d="M5.542,221.72H1.048A1.05,1.05,0,0,1,0,220.671v-6.291a1.05,1.05,0,0,1,1.048-1.049H5.542a1.05,1.05,0,0,1,1.049,1.049v6.291A1.05,1.05,0,0,1,5.542,221.72Zm-4.493-7.489a.15.15,0,0,0-.15.15v6.291a.15.15,0,0,0,.15.15H5.542a.15.15,0,0,0,.15-.15v-6.291a.15.15,0,0,0-.15-.15Zm0,0" transform="translate(0 -207.341)" stroke-width="0.3"/>
    <path id="Path_19" data-name="Path 19" d="M282.874,346.125h-4.493a1.05,1.05,0,0,1-1.049-1.048v-2.7a1.05,1.05,0,0,1,1.049-1.049h4.493a1.05,1.05,0,0,1,1.048,1.049v2.7A1.05,1.05,0,0,1,282.874,346.125Zm-4.493-3.894a.15.15,0,0,0-.15.15v2.7a.15.15,0,0,0,.15.15h4.493a.15.15,0,0,0,.15-.15v-2.7a.15.15,0,0,0-.15-.15Zm0,0" transform="translate(-269.544 -331.746)" stroke-width="0.3"/>
    <path id="Path_20" data-name="Path 20" d="M282.874,8.388h-4.493a1.05,1.05,0,0,1-1.049-1.049V1.049A1.05,1.05,0,0,1,278.381,0h4.493a1.05,1.05,0,0,1,1.048,1.048V7.339A1.05,1.05,0,0,1,282.874,8.388ZM278.381.9a.15.15,0,0,0-.15.15V7.339a.15.15,0,0,0,.15.15h4.493a.15.15,0,0,0,.15-.15V1.049a.15.15,0,0,0-.15-.15Zm0,0" transform="translate(-269.544 0)" stroke-width="0.3"/>
  </g>
</svg>
