<svg xmlns="http://www.w3.org/2000/svg" width="18.437" height="18.437" viewBox="0 0 18.437 18.437">
  <g id="evaluation" transform="translate(0 0.001)" style="isolation: isolate">
    <path id="Path_40" data-name="Path 40" d="M192.36,452a.36.36,0,1,0,.255.105A.363.363,0,0,0,192.36,452Zm0,0" transform="translate(-185.086 -435.724)"/>
    <path id="Path_41" data-name="Path 41" d="M18.053,4.908a1.314,1.314,0,0,0-1.856,0L14.548,6.557V1.224A1.226,1.226,0,0,0,13.324,0H1.224A1.226,1.226,0,0,0,0,1.224V17.212a1.226,1.226,0,0,0,1.224,1.224h12.1a1.226,1.226,0,0,0,1.224-1.224V10.269l3.5-3.5a1.314,1.314,0,0,0,0-1.856ZM13.828,1.224V7.277l-.72.72V1.8a.36.36,0,0,0-.36-.36H10.341V.72h2.983a.5.5,0,0,1,.5.5ZM11.861,11.1l.486-1.092.606.606ZM9.621.72V2.187a.406.406,0,0,1-.405.405H5.332a.406.406,0,0,1-.405-.405V.72Zm3.7,17H1.224a.5.5,0,0,1-.5-.5V1.224a.5.5,0,0,1,.5-.5H4.207v.72H1.8a.36.36,0,0,0-.36.36V16.636A.36.36,0,0,0,1.8,17H5.833a.36.36,0,1,0,0-.72H2.16V2.16H4.207v.027A1.127,1.127,0,0,0,5.332,3.312H9.215a1.127,1.127,0,0,0,1.125-1.125V2.16h2.047V8.718l-.41.41a.364.364,0,0,0-.074.108l-1.081,2.428a.36.36,0,0,0,.475.476l1.09-.485v4.622H8.714a.36.36,0,1,0,0,.72h4.033a.36.36,0,0,0,.36-.36v-5.3l.618-.275a.359.359,0,0,0,.1-.069v6.223a.5.5,0,0,1-.5.5ZM16.2,7.6,13.579,10.22l-.838-.838,3.247-3.247.838.838Zm1.342-1.342-.208.208L16.5,5.626l.208-.208a.592.592,0,0,1,.838.838Zm0,0" transform="translate(0 0)"/>
    <path id="Path_42" data-name="Path 42" d="M90.665,120h-2.3a.36.36,0,0,0-.36.36v2.3a.36.36,0,0,0,.36.36h2.3a.36.36,0,0,0,.36-.36v-2.3A.36.36,0,0,0,90.665,120Zm-.36,2.3H88.72V120.72H90.3Zm0,0" transform="translate(-84.831 -115.679)"/>
    <path id="Path_43" data-name="Path 43" d="M90.665,230h-2.3a.36.36,0,0,0-.36.36v2.3a.36.36,0,0,0,.36.36h2.3a.36.36,0,0,0,.36-.36v-2.3A.36.36,0,0,0,90.665,230Zm-.36,2.3H88.72V230.72H90.3Zm0,0" transform="translate(-84.831 -221.718)"/>
    <path id="Path_44" data-name="Path 44" d="M90.665,340h-2.3a.36.36,0,0,0-.36.36v2.3a.36.36,0,0,0,.36.36h2.3a.36.36,0,0,0,.36-.36v-2.3A.36.36,0,0,0,90.665,340Zm-.36,2.3H88.72V340.72H90.3Zm0,0" transform="translate(-84.831 -327.757)"/>
    <path id="Path_45" data-name="Path 45" d="M209.308,131.667a.36.36,0,0,0,.509,0l1.626-1.626a.36.36,0,0,0-.509-.509l-1.371,1.371-.546-.546a.36.36,0,0,0-.509.509Zm0,0" transform="translate(-200.897 -124.766)"/>
    <path id="Path_46" data-name="Path 46" d="M209.308,241.67a.36.36,0,0,0,.509,0l1.626-1.626a.36.36,0,0,0-.509-.509l-1.371,1.371-.546-.546a.36.36,0,0,0-.509.509Zm0,0" transform="translate(-200.897 -230.808)"/>
    <path id="Path_47" data-name="Path 47" d="M220.7,351.109l.558.558a.36.36,0,1,0,.509-.509l-.558-.558.558-.558a.36.36,0,1,0-.509-.509l-.558.558-.558-.558a.36.36,0,1,0-.509.509l.558.558-.558.558a.36.36,0,0,0,.509.509Zm0,0" transform="translate(-211.622 -336.844)"/>
  </g>
</svg>
