<svg xmlns="http://www.w3.org/2000/svg" width="18.723" height="14.924" viewBox="0 0 18.723 14.924">
  <g id="predictive-analysis" transform="translate(0.2 -52.88)" style="isolation: isolate">
    <g id="Group_48" data-name="Group 48" transform="translate(0 53.08)">
      <g id="Group_47" data-name="Group 47">
        <path id="Path_57" data-name="Path 57" d="M16.76,53.08H1.563A1.565,1.565,0,0,0,0,54.643v11.4A1.565,1.565,0,0,0,1.563,67.6h15.2a1.565,1.565,0,0,0,1.563-1.563v-11.4A1.565,1.565,0,0,0,16.76,53.08Zm.97,12.961a.971.971,0,0,1-.97.97h-.97v-.653a.3.3,0,0,0-.594,0v.653H12.624v-.653a.3.3,0,1,0-.594,0v.653H9.458v-.653a.3.3,0,0,0-.594,0v.653H6.292v-.653a.3.3,0,0,0-.594,0v.653H3.126v-.653a.3.3,0,0,0-.594,0v.653h-.97a.971.971,0,0,1-.97-.97v-11.4a.971.971,0,0,1,.97-.97h15.2a.971.971,0,0,1,.97.97Z" transform="translate(0 -53.08)" stroke-width="0.4"/>
      </g>
    </g>
    <g id="Group_50" data-name="Group 50" transform="translate(1.9 54.98)">
      <g id="Group_49" data-name="Group 49">
        <path id="Path_58" data-name="Path 58" d="M66.673,106.16a.929.929,0,0,0-.908,1.129l-1.655.993a.929.929,0,0,0-1.275,1.349l-2.345,4.456a.927.927,0,0,0-.7.17l-1.722-1.206a.93.93,0,1,0-1.746.107l-1.856,1.671a.93.93,0,1,0,.4.441l1.856-1.671a.92.92,0,0,0,.167.074.3.3,0,0,0-.008.066v.633a.3.3,0,0,0,.594,0v-.633a.3.3,0,0,0-.008-.066.927.927,0,0,0,.262-.135l1.722,1.206a.929.929,0,0,0,.6,1.143v.385a.3.3,0,1,0,.594,0v-.385a.929.929,0,0,0,.376-1.522l2.2-4.173v.382a.3.3,0,1,0,.594,0v-.7a.929.929,0,0,0,.612-1.08l1.655-.993a.93.93,0,0,0,.306.174v.7a.3.3,0,1,0,.594,0v-.7a.93.93,0,0,0-.3-1.811Zm-12.664,9.815a.336.336,0,1,1,.336-.336A.337.337,0,0,1,54.009,115.975Zm3.166-2.849a.336.336,0,1,1,.336-.336A.337.337,0,0,1,57.175,113.125Zm3.166,2.216a.336.336,0,1,1,.336-.336A.337.337,0,0,1,60.341,115.341Zm3.166-6.015a.336.336,0,1,1,.336-.336A.337.337,0,0,1,63.507,109.326Zm3.166-1.9a.336.336,0,1,1,.336-.336A.337.337,0,0,1,66.673,107.426Z" transform="translate(-53.079 -106.16)" stroke-width="0.4"/>
      </g>
    </g>
    <g id="Group_52" data-name="Group 52" transform="translate(12.031 64.161)">
      <g id="Group_51" data-name="Group 51" transform="translate(0 0)">
        <path id="Path_59" data-name="Path 59" d="M336.469,362.713a.3.3,0,0,0-.3.3v.633a.3.3,0,1,0,.594,0v-.633A.3.3,0,0,0,336.469,362.713Z" transform="translate(-336.172 -362.713)" stroke-width="0.4"/>
      </g>
    </g>
    <g id="Group_54" data-name="Group 54" transform="translate(12.031 60.362)">
      <g id="Group_53" data-name="Group 53">
        <path id="Path_60" data-name="Path 60" d="M336.469,256.553a.3.3,0,0,0-.3.3v.633a.3.3,0,0,0,.594,0v-.633A.3.3,0,0,0,336.469,256.553Z" transform="translate(-336.172 -256.553)" stroke-width="0.4"/>
      </g>
    </g>
    <g id="Group_56" data-name="Group 56" transform="translate(12.031 62.261)">
      <g id="Group_55" data-name="Group 55">
        <path id="Path_61" data-name="Path 61" d="M336.469,309.633a.3.3,0,0,0-.3.3v.633a.3.3,0,0,0,.594,0v-.633A.3.3,0,0,0,336.469,309.633Z" transform="translate(-336.172 -309.633)" stroke-width="0.4"/>
      </g>
    </g>
    <g id="Group_58" data-name="Group 58" transform="translate(5.699 64.161)">
      <g id="Group_57" data-name="Group 57" transform="translate(0 0)">
        <path id="Path_62" data-name="Path 62" d="M159.536,362.713a.3.3,0,0,0-.3.3v.633a.3.3,0,1,0,.594,0v-.633A.3.3,0,0,0,159.536,362.713Z" transform="translate(-159.239 -362.713)" stroke-width="0.4"/>
      </g>
    </g>
    <g id="Group_60" data-name="Group 60" transform="translate(15.197 64.161)">
      <g id="Group_59" data-name="Group 59" transform="translate(0 0)">
        <path id="Path_63" data-name="Path 63" d="M424.936,362.713a.3.3,0,0,0-.3.3v.633a.3.3,0,1,0,.594,0v-.633A.3.3,0,0,0,424.936,362.713Z" transform="translate(-424.639 -362.713)" stroke-width="0.4"/>
      </g>
    </g>
    <g id="Group_62" data-name="Group 62" transform="translate(15.197 60.362)">
      <g id="Group_61" data-name="Group 61">
        <path id="Path_64" data-name="Path 64" d="M424.936,256.553a.3.3,0,0,0-.3.3v.633a.3.3,0,1,0,.594,0v-.633A.3.3,0,0,0,424.936,256.553Z" transform="translate(-424.639 -256.553)" stroke-width="0.4"/>
      </g>
    </g>
    <g id="Group_64" data-name="Group 64" transform="translate(15.197 58.462)">
      <g id="Group_63" data-name="Group 63">
        <path id="Path_65" data-name="Path 65" d="M424.936,203.473a.3.3,0,0,0-.3.3v.633a.3.3,0,1,0,.594,0v-.633A.3.3,0,0,0,424.936,203.473Z" transform="translate(-424.639 -203.473)" stroke-width="0.4"/>
      </g>
    </g>
    <g id="Group_66" data-name="Group 66" transform="translate(15.197 62.261)">
      <g id="Group_65" data-name="Group 65">
        <path id="Path_66" data-name="Path 66" d="M424.936,309.633a.3.3,0,0,0-.3.3v.633a.3.3,0,1,0,.594,0v-.633A.3.3,0,0,0,424.936,309.633Z" transform="translate(-424.639 -309.633)" stroke-width="0.4"/>
      </g>
    </g>
  </g>
</svg>
