<svg xmlns="http://www.w3.org/2000/svg" width="25.621" height="25.621" viewBox="0 0 25.621 25.621">
  <g id="Group_3" data-name="Group 3" transform="translate(-55.24 -13.258)">
    <path id="Path_1" data-name="Path 1" d="M112.737,28.42c0-.041-.007-.085-.009-.129q-.007-.135-.012-.27c-.006-.14-.01-.28-.016-.42-.01-.224-.021-.448-.031-.672q-.007-.147-.013-.294c-.006-.142-.01-.284-.017-.426-.01-.22-.021-.44-.031-.66-.006-.122-.01-.244-.015-.366q-.006-.135-.012-.27a.283.283,0,0,0-.005-.032.3.3,0,0,0-.041-.006H112.3c-.022-.018-.017-.04-.017-.059,0-.086,0-.172,0-.258,0-.054,0-.108,0-.162,0-.02,0-.039,0-.062a.385.385,0,0,1,.044-.006h.162c.018,0,.035,0,.052,0a.549.549,0,0,0-.008-.206.577.577,0,0,0-.142-.007.835.835,0,0,1-.137-.005.165.165,0,0,1-.011-.084c0-.028,0-.056,0-.084s0-.056,0-.079a.055.055,0,0,1,.049-.016h.168a.093.093,0,0,0,.058-.009.425.425,0,0,0-.008-.169.315.315,0,0,0-.039,0h-.228l-.063,0a.181.181,0,0,1-.007-.035q0-.225,0-.451a.24.24,0,0,1,0-.032c.016,0,.029,0,.043,0h.2l.061,0a.166.166,0,0,0,.006-.032q-.008-.2-.017-.408a.2.2,0,0,0,0-.025.161.161,0,0,0-.083,0,.584.584,0,0,1-.209-.009.371.371,0,0,1-.146-.067.7.7,0,0,1-.2-.24,1.214,1.214,0,0,1-.121-.369,2.3,2.3,0,0,1-.026-.449c0-.054,0-.108,0-.162-.006-.006-.01-.012-.016-.018a1.059,1.059,0,0,1-.292-.476,1.915,1.915,0,0,1-.076-.382,3.5,3.5,0,0,1-.007-.558c.009-.162.028-.323.052-.484a11.717,11.717,0,0,1,.478-1.933c0-.013.009-.027.012-.04a.057.057,0,0,0,0-.013,2.618,2.618,0,0,1-.458-2.235,2.579,2.579,0,0,1,1.205-1.606,2.607,2.607,0,0,1,3.588.935,2.609,2.609,0,0,1-.1,2.792,2.626,2.626,0,0,1-1.123.925c0,.017,0,.033,0,.049q0,.691,0,1.383c0,.014,0,.028,0,.046s.029.011.044.015l.617.155.067.017a.231.231,0,0,1,0,.04q-.008.174-.018.348c0,.084-.011.168-.016.252s-.01.184-.015.276q-.016.273-.032.546c0,.076-.009.152-.013.228-.006.1-.01.208-.016.312-.01.166-.02.332-.03.5,0,.076-.009.152-.013.228-.01.176-.019.352-.029.528s-.021.332-.031.5c-.006.1-.01.192-.016.288q-.016.267-.032.534c0,.072-.009.144-.013.216-.006.1-.01.2-.016.306-.01.17-.021.34-.031.51,0,.074-.009.148-.013.222-.006.1-.01.2-.016.306-.01.17-.021.34-.031.51,0,.076-.009.152-.013.228-.01.176-.019.352-.029.528s-.021.332-.031.5c-.006.092-.01.184-.015.276s-.009.18-.015.27a.313.313,0,0,1-.007.039.087.087,0,0,1-.06.011h-.252a.122.122,0,0,0-.061.009.445.445,0,0,0,.031.085c.009.026.017.053.027.08a.36.36,0,0,0,.029.087c.06-.009.119-.019.178-.026a.629.629,0,0,1,.185,0,.16.16,0,0,1,.1.059c.04.05.083.1.123.147.359.442.719.882,1.075,1.326q1.425,1.774,2.846,3.549l.6.746c.012.015.026.03.04.046.013-.005.025-.009.035-.014a.394.394,0,0,1,.222-.036.1.1,0,0,1,.055.022c.026.021.053.043.077.067a4.8,4.8,0,0,1,.337.375.393.393,0,0,1,.033.057.1.1,0,0,0,.138.042.138.138,0,0,0,.038-.037.17.17,0,0,0,.016-.035l.053,0,1.37-.008a.159.159,0,0,1,.085.022l.628.366.043.027a.537.537,0,0,1,0,.149.207.207,0,0,1-.135-.009c-.1-.045-.193-.089-.289-.133s-.171-.078-.256-.118a.132.132,0,0,0-.092-.009c-.335.075-.671.148-1.007.222a.185.185,0,0,0-.064.338.427.427,0,0,0,.141.048.416.416,0,0,1,.1.017.389.389,0,0,1,.08.063l.893.741a.239.239,0,0,1,.068.089q.228.51.458,1.019c.032.07.032.071-.014.135l-.009.006a.5.5,0,0,1-.127-.023l-.03-.063c-.132-.292-.264-.583-.4-.876a.15.15,0,0,0-.071-.076q-.38-.2-.758-.4a.144.144,0,0,0-.118-.015.187.187,0,0,0-.025.091l.043.049q.278.308.556.615a.242.242,0,0,1,.06.114c.088.388.179.776.268,1.164,0,.017.006.035.009.054a.409.409,0,0,1-.071.068.353.353,0,0,1-.084-.042c-.016-.009-.019-.025-.023-.041-.017-.062-.033-.124-.05-.186-.081-.3-.163-.6-.243-.9a.162.162,0,0,0-.066-.1c-.156-.113-.31-.228-.464-.342a.164.164,0,0,0-.155-.036l-.024.059.043.059c.132.176.264.353.4.528a.191.191,0,0,1,.042.1c.013.142.03.283.045.424s.029.255.043.382c.009.08.016.159.026.239,0,.039-.02.058-.044.08,0,0-.011,0-.017,0l-.012,0c-.055-.012-.1-.033-.095-.1l-.1-.591c-.018-.1-.035-.2-.052-.3a.15.15,0,0,0-.047-.087q-.3-.3-.6-.594l0,0a.1.1,0,0,0-.122-.033c0,.008,0,.018-.007.027a.1.1,0,0,0,.018.09c.121.189.241.379.362.567a.186.186,0,0,1,.031.1c.007.262.015.525.023.787,0,.024,0,.048,0,.072a.126.126,0,0,1-.147.007c-.005-.042-.01-.081-.014-.121q-.023-.224-.046-.448c-.006-.056-.011-.112-.016-.167,0-.014,0-.028,0-.042a.1.1,0,0,0-.039-.077c-.032-.027-.062-.057-.093-.086q-.284-.265-.567-.529a.461.461,0,0,0-.121-.087.187.187,0,0,1-.075-.066q-.469-.666-.939-1.331a.144.144,0,0,1-.028-.089.963.963,0,0,1,.023-.227.6.6,0,0,1,.053-.14l.015-.029c-.006-.023-.024-.031-.037-.041a6.37,6.37,0,0,0-.788-.517,6.169,6.169,0,0,0-1.488-.581c-.227-.057-.456-.106-.686-.145l-.5-.083c-.173-.03-.348-.055-.519-.1a2.334,2.334,0,0,1-.75-.31,1.841,1.841,0,0,1-.6-.658,2.816,2.816,0,0,1-.154-.325.157.157,0,0,0-.053-.07,1.544,1.544,0,0,1-.557-.807,3.326,3.326,0,0,1-.11-.522,7.65,7.65,0,0,1-.06-1.151q0-.261.015-.523c.007-.144.02-.288.03-.431a1.044,1.044,0,0,0,0-.138,1.023,1.023,0,0,1,.088-.5.169.169,0,0,0,.007-.021c-.01-.02-.028-.016-.043-.016h-.21C112.776,28.435,112.755,28.44,112.737,28.42Zm4.674,5.773.007.006,0,0-.012,0c0-.026-.027-.028-.042-.036-.186-.1-.372-.2-.561-.3a8.96,8.96,0,0,0-1.057-.469c-.293-.106-.591-.2-.888-.293a6.293,6.293,0,0,1-.891-.337c-.006,0-.014-.009-.024,0a.172.172,0,0,0,.009.025c.017.032.034.064.051.1a1.66,1.66,0,0,0,.776.709,2.394,2.394,0,0,0,.548.172c.145.028.291.05.437.075s.315.053.473.081c.136.025.271.05.406.078q.367.078.724.191A.266.266,0,0,0,117.41,34.193Zm.47.047.01.008,0,0-.013,0c0-.007,0-.016-.008-.02s-.033-.029-.051-.043l-4.166-3.392-.047-.037a.13.13,0,0,0-.024-.01.34.34,0,0,0,0,.039c.014.232.029.464.051.695.019.2.041.4.075.6a1.873,1.873,0,0,0,.086.337.142.142,0,0,0,.067.08c.053.029.1.061.156.09a3.3,3.3,0,0,0,.486.206c.256.086.513.169.769.252s.539.177.8.284a11.149,11.149,0,0,1,1.125.54c.209.114.415.233.623.35C117.84,34.225,117.856,34.242,117.88,34.241ZM116.17,15.87a2.253,2.253,0,1,0-2.249,2.256A2.256,2.256,0,0,0,116.17,15.87Zm-4.3,5.408a.366.366,0,0,0,.215.049.8.8,0,0,0,.3-.085.052.052,0,0,0,.032-.057c0-.058-.006-.116-.008-.174q-.012-.282-.024-.564c-.006-.142-.013-.284-.02-.426a.189.189,0,0,1,0-.079l.057-.018.5-.154a.059.059,0,0,0,.043-.029c0-.463,0-.932,0-1.4a.173.173,0,0,0,0-.026c-.053-.023-.106-.045-.158-.07s-.1-.051-.155-.079-.1-.06-.155-.092-.1-.066-.144-.1a1.7,1.7,0,0,0-.142-.1.317.317,0,0,0-.008.032c-.009.067-.018.135-.027.2l-.043.321-.041.31c-.018.137-.037.274-.054.411-.014.115-.027.231-.041.346-.015.131-.03.263-.043.394-.011.112-.02.223-.028.335q-.019.252-.035.5c-.007.1-.013.2-.018.306C111.879,21.113,111.877,21.194,111.875,21.278Zm3.037,7.493c0,.032,0,.055,0,.079a.966.966,0,0,1-.267.711c-.008.008-.015.02-.031.013,0-.019,0-.039,0-.058q.007-.186.015-.372c0-.01,0-.02,0-.03.01-.21,0-.42-.007-.631a.189.189,0,0,0-.008-.037.809.809,0,0,0-.242,0,.108.108,0,0,0,0,.059c0,.1.009.192.008.288,0,.176,0,.352-.009.529,0,.094-.009.188-.014.282,0,.046-.008.092-.011.138a.055.055,0,0,1-.038.055.922.922,0,0,1-.249.065.992.992,0,0,1-.472-.056.285.285,0,0,0-.044-.009c0,.068,0,.132,0,.2s0,.124.007.186a.928.928,0,0,0,.016.191l.044,0a.971.971,0,0,0,.33-.055,1.853,1.853,0,0,0,.519-.272,4.806,4.806,0,0,0,.393-.317,2.866,2.866,0,0,0,.29-.3,1.245,1.245,0,0,0,.159-.233.538.538,0,0,0,.052-.153.213.213,0,0,0-.139-.25A.671.671,0,0,0,114.911,28.771Zm-3.22-7.669.011,0c0-.058.008-.115.011-.173.006-.106.01-.212.016-.318,0-.066.008-.132.014-.2q.016-.2.032-.395c.008-.1.018-.2.028-.293s.02-.183.031-.274c.013-.115.027-.231.041-.346.017-.137.036-.274.054-.411s.035-.27.053-.4.037-.274.055-.41q.009-.069.015-.137a.053.053,0,0,0,0-.034.212.212,0,0,0-.068-.065.151.151,0,0,0-.029.068,11.042,11.042,0,0,0-.438,1.843c-.018.131-.033.262-.042.394a3.223,3.223,0,0,0,0,.426,1.964,1.964,0,0,0,.063.4,1.033,1.033,0,0,0,.133.3A.311.311,0,0,0,111.691,21.1Zm1.416,8.324a.125.125,0,0,0-.012.025c0,.042-.01.084-.012.126-.008.162-.017.324-.021.486-.006.216,0,.433.016.649a5.04,5.04,0,0,0,.076.626,2.583,2.583,0,0,0,.132.474,1.38,1.38,0,0,0,.221.377c.011.013.02.03.043.036a.237.237,0,0,0,0-.035c-.018-.121-.039-.241-.055-.362s-.027-.239-.039-.358-.023-.239-.031-.359q-.016-.24-.028-.48a.11.11,0,0,0-.047-.091c-.058-.043-.112-.091-.168-.136a.2.2,0,0,1-.083-.178c0-.04.005-.08.01-.12a.6.6,0,0,1,.091-.264c.03-.047.066-.09.1-.135l.03-.039c-.029-.027-.056-.05-.081-.075s-.047-.049-.069-.075S113.135,29.461,113.107,29.426Zm-1.235-7.948a.153.153,0,0,0-.006.025,2.057,2.057,0,0,0,.028.473,1.019,1.019,0,0,0,.1.289.518.518,0,0,0,.144.175.269.269,0,0,0,.114.049.612.612,0,0,0,.2-.009c.007,0,.013-.008.022-.014,0-.056,0-.112-.005-.168-.006-.136-.013-.272-.019-.408s-.01-.264-.016-.4a.373.373,0,0,0,0-.042.15.15,0,0,0-.009-.025,1.574,1.574,0,0,1-.266.074A.763.763,0,0,1,111.872,21.478Zm1.444,5.949h1.306c.016,0,.032,0,.048,0a.257.257,0,0,0,.034-.007.2.2,0,0,0,0-.026q0-.228,0-.456a.17.17,0,0,0-.007-.032l-.073,0h-1.279l-.033,0A4.368,4.368,0,0,0,113.316,27.427Zm0,.238.072,0h1.244a.371.371,0,0,0,.042,0,.278.278,0,0,0,.036-.009c0-.032,0-.062,0-.092a.177.177,0,0,0-.012-.1h-1.3c-.016,0-.032,0-.048,0a.273.273,0,0,0-.036.008A1.457,1.457,0,0,0,113.312,27.664Zm6.759,6.933c0,.023,0,.045.008.066a.64.64,0,0,1,.009.156.579.579,0,0,1-.182.412.923.923,0,0,1-.21.148c-.013.007-.031.01-.038.03a.334.334,0,0,0,.068.056c.023.019.048.037.072.054a.271.271,0,0,0,.078.049c.023-.018.048-.036.07-.055a1.371,1.371,0,0,0,.385-.558.7.7,0,0,0,.034-.127.305.305,0,0,0-.006-.149.116.116,0,0,0-.065-.075.261.261,0,0,0-.063-.018.485.485,0,0,0-.138,0A.1.1,0,0,0,120.072,34.6Zm-6.113-3.792a.163.163,0,1,0,.166-.162A.165.165,0,0,0,113.959,30.806Zm5.659,4.908a.153.153,0,0,0-.018-.024l-.3-.251a.081.081,0,0,0-.023-.008.48.48,0,0,0-.043.229.119.119,0,0,0,.14.121A.673.673,0,0,0,119.618,35.714Zm-6.242-5.4c0-.18-.013-.351-.015-.522,0-.005,0-.01-.009-.019a.166.166,0,0,0-.023.02.8.8,0,0,0-.1.162.591.591,0,0,0-.032.09.175.175,0,0,0,.046.177.435.435,0,0,0,.1.082A.245.245,0,0,0,113.376,30.316Zm.76-3.643a.131.131,0,0,0-.135-.13.134.134,0,0,0-.128.132.131.131,0,0,0,.136.129A.128.128,0,0,0,114.136,26.673Zm-.414.131a.13.13,0,0,0,.132-.133.132.132,0,0,0-.264.006A.13.13,0,0,0,113.722,26.8Zm.566,0a.131.131,0,0,0,.133-.133.136.136,0,0,0-.132-.128.132.132,0,0,0-.132.134A.128.128,0,0,0,114.288,26.8Zm-.718-.131a.131.131,0,1,0-.262,0,.131.131,0,0,0,.262,0Zm1.288,1.578a.131.131,0,0,0,.262,0,.131.131,0,1,0-.262,0Zm-1.917.13a.131.131,0,0,0,.131-.128.132.132,0,1,0-.131.128Zm1.632-1.837a.132.132,0,0,0-.133.132.131.131,0,1,0,.133-.132Zm5,7.575a.123.123,0,0,0-.122-.122.123.123,0,1,0,0,.247A.123.123,0,0,0,119.568,34.118Z" transform="translate(-45.691 0)" fill="#203363"/>
    <path id="Path_2" data-name="Path 2" d="M163.524,26.5h4.963c0,.017,0,.028.005.04s0,.04,0,.06q0,2.047,0,4.093a3.006,3.006,0,0,1-.014.342,1.792,1.792,0,0,1-.123.5,1.11,1.11,0,0,1-.677.633,1.852,1.852,0,0,1-.379.088,2.7,2.7,0,0,1-.462.021,2.037,2.037,0,0,1-.653-.117,1.113,1.113,0,0,1-.681-.69,1.9,1.9,0,0,1-.1-.463,3.336,3.336,0,0,1-.012-.336q0-.493,0-.986c0-.024,0-.048,0-.073a.271.271,0,0,0-.038-.009c-.022,0-.044,0-.066,0h-1.972a.239.239,0,0,1-.071,0c-.006-.021.009-.031.018-.044a3.039,3.039,0,0,0,.511-1.277,3.053,3.053,0,0,0-.228-1.709c-.007-.016-.014-.033-.021-.05A.094.094,0,0,1,163.524,26.5Z" transform="translate(-92.529 -11.941)" fill="#203363"/>
    <path id="Path_3" data-name="Path 3" d="M60.617,26.522h4.837c.009.023-.006.039-.014.057a3.044,3.044,0,0,0-.169.481,3.159,3.159,0,0,0-.083.466,2.932,2.932,0,0,0-.006.546,3.025,3.025,0,0,0,.525,1.483l.03.045a.032.032,0,0,1,0,.012c-.005.011-.016.01-.026.01H63.8a.175.175,0,0,0-.083.008.155.155,0,0,0-.006.071q0,.469,0,.938c0,.122,0,.244-.012.366a1.83,1.83,0,0,1-.129.553,1.108,1.108,0,0,1-.673.628,1.838,1.838,0,0,1-.379.088,2.7,2.7,0,0,1-.468.021,2.021,2.021,0,0,1-.652-.119,1.11,1.11,0,0,1-.676-.688,1.864,1.864,0,0,1-.1-.433,3.2,3.2,0,0,1-.015-.354q0-2.044,0-4.087A.264.264,0,0,1,60.617,26.522Z" transform="translate(0 -11.958)" fill="#203363"/>
    <path id="Path_4" data-name="Path 4" d="M122.3,22.231a1.92,1.92,0,1,1-1.915-1.921A1.922,1.922,0,0,1,122.3,22.231ZM120.385,23.3a1.074,1.074,0,1,0-1.076-1.067A1.073,1.073,0,0,0,120.385,23.3Z" transform="translate(-52.158 -6.358)" fill="#203363"/>
    <path id="Path_5" data-name="Path 5" d="M131.593,34.136a.7.7,0,1,1,.7-.694A.692.692,0,0,1,131.593,34.136Z" transform="translate(-63.367 -17.567)" fill="#203363"/>
  </g>
</svg>
