<?xml version="1.0" encoding="UTF-8" standalone="no"?>
<!-- Created with Inkscape (http://www.inkscape.org/) -->

<svg
   version="1.1"
   id="svg2"
   xml:space="preserve"
   width="153.38667"
   height="151.52"
   viewBox="0 0 153.38667 151.52"
   sodipodi:docname="grafana_icon.svg"
   inkscape:version="1.1.2 (76b9e6a115, 2022-02-25)"
   xmlns:inkscape="http://www.inkscape.org/namespaces/inkscape"
   xmlns:sodipodi="http://sodipodi.sourceforge.net/DTD/sodipodi-0.dtd"
   xmlns="http://www.w3.org/2000/svg"
   xmlns:svg="http://www.w3.org/2000/svg"><defs
     id="defs6" /><sodipodi:namedview
     id="namedview4"
     pagecolor="#ffffff"
     bordercolor="#666666"
     borderopacity="1.0"
     inkscape:pageshadow="2"
     inkscape:pageopacity="0.0"
     inkscape:pagecheckerboard="0"
     showgrid="false"
     inkscape:zoom="4.745248"
     inkscape:cx="76.602951"
     inkscape:cy="75.760002"
     inkscape:window-width="1848"
     inkscape:window-height="1136"
     inkscape:window-x="72"
     inkscape:window-y="27"
     inkscape:window-maximized="1"
     inkscape:current-layer="g8" /><g
     id="g8"
     inkscape:groupmode="layer"
     inkscape:label="ink_ext_XXXXXX"
     transform="matrix(1.3333333,0,0,-1.3333333,0,151.52)"><g
       id="g10"
       transform="scale(0.1)"><path
         d="m 571.473,951.98 c 0,-41.98 -34.035,-76.011 -76.012,-76.011 -41.984,0 -76.016,34.031 -76.016,76.011 0,41.985 34.032,76.01 76.016,76.01 41.977,0 76.012,-34.025 76.012,-76.01"
         style="fill:#ffffff;fill-opacity:1;fill-rule:nonzero;stroke:none"
         id="path12" /><path
         d="m 578.379,793.047 c 0,-45.797 -37.121,-82.926 -82.918,-82.926 -45.797,0 -82.926,37.129 -82.926,82.926 0,45.793 37.129,82.922 82.926,82.922 45.797,0 82.918,-37.129 82.918,-82.922"
         style="fill:#ffffff;fill-opacity:1;fill-rule:nonzero;stroke:none"
         id="path14" /><path
         d="m 577,642.211 c 0,-45.035 -36.504,-81.539 -81.539,-81.539 -45.035,0 -81.543,36.504 -81.543,81.539 0,45.031 36.508,81.539 81.543,81.539 45.035,0 81.539,-36.508 81.539,-81.539"
         style="fill:#ffffff;fill-opacity:1;fill-rule:nonzero;stroke:none"
         id="path16" /><path
         d="m 574.234,490.547 c 0,-43.508 -35.269,-78.77 -78.773,-78.77 -43.508,0 -78.781,35.262 -78.781,78.77 0,43.504 35.273,78.777 78.781,78.777 43.504,0 78.773,-35.273 78.773,-78.777"
         style="fill:#ffffff;fill-opacity:1;fill-rule:nonzero;stroke:none"
         id="path18" /><path
         d="m 571.473,341.336 c 0,-41.981 -34.035,-76.008 -76.012,-76.008 -41.984,0 -76.016,34.027 -76.016,76.008 0,41.98 34.032,76.016 76.016,76.016 41.977,0 76.012,-34.036 76.012,-76.016"
         style="fill:#ffffff;fill-opacity:1;fill-rule:nonzero;stroke:none"
         id="path20" /><path
         d="m 567.379,182.957 c 0,-40.066 -32.481,-72.559 -72.555,-72.559 -40.07,0 -72.558,32.493 -72.558,72.559 0,40.07 32.488,72.559 72.558,72.559 40.074,0 72.555,-32.489 72.555,-72.559"
         style="fill:#ffffff;fill-opacity:1;fill-rule:nonzero;stroke:none"
         id="path22" /><path
         d="m 245.516,793.047 c 0,-30.535 -24.754,-55.285 -55.286,-55.285 -30.531,0 -55.281,24.75 -55.281,55.285 0,30.531 24.75,55.281 55.281,55.281 30.532,0 55.286,-24.75 55.286,-55.281"
         style="fill:#ffffff;fill-opacity:1;fill-rule:nonzero;stroke:none"
         id="path24" /><path
         d="m 245.379,951.98 c 0,-30.531 -24.754,-55.285 -55.285,-55.285 -30.528,0 -55.278,24.754 -55.278,55.285 0,30.532 24.75,55.29 55.278,55.29 30.531,0 55.285,-24.758 55.285,-55.29"
         style="fill:#ffffff;fill-opacity:1;fill-rule:nonzero;stroke:none"
         id="path26" /><path
         d="m 1007.78,793.047 c 0,-30.535 -24.757,-55.285 -55.284,-55.285 -30.527,0 -55.281,24.75 -55.281,55.285 0,30.531 24.754,55.281 55.281,55.281 30.527,0 55.284,-24.75 55.284,-55.281"
         style="fill:#ffffff;fill-opacity:1;fill-rule:nonzero;stroke:none"
         id="path28" /><path
         d="m 69.875,793.047 c 0,-19.082 -15.4687,-34.555 -34.5508,-34.555 -19.082,0 -34.550762,15.473 -34.550762,34.555 0,19.082 15.468762,34.551 34.550762,34.551 19.0821,0 34.5508,-15.469 34.5508,-34.551"
         style="fill:#ffffff;fill-opacity:1;fill-rule:nonzero;stroke:none"
         id="path30" /><path
         d="m 69.7383,642.211 c 0,-19.082 -15.4688,-34.551 -34.5508,-34.551 -19.082,0 -34.550781,15.469 -34.550781,34.551 0,19.082 15.468781,34.551 34.550781,34.551 19.082,0 34.5508,-15.469 34.5508,-34.551"
         style="fill:#ffffff;fill-opacity:1;fill-rule:nonzero;stroke:none"
         id="path32" /><path
         d="m 224.645,642.211 c 0,-19.082 -15.469,-34.551 -34.551,-34.551 -19.082,0 -34.551,15.469 -34.551,34.551 0,19.082 15.469,34.551 34.551,34.551 19.082,0 34.551,-15.469 34.551,-34.551"
         style="fill:#ffffff;fill-opacity:1;fill-rule:nonzero;stroke:none"
         id="path34" /><path
         d="m 377.047,642.211 c 0,-19.082 -15.469,-34.551 -34.551,-34.551 -19.082,0 -34.551,15.469 -34.551,34.551 0,19.082 15.469,34.551 34.551,34.551 19.082,0 34.551,-15.469 34.551,-34.551"
         style="fill:#ffffff;fill-opacity:1;fill-rule:nonzero;stroke:none"
         id="path36" /><path
         d="m 69.7383,490.547 c 0,-19.082 -15.4688,-34.555 -34.5508,-34.555 -19.082,0 -34.550781,15.473 -34.550781,34.555 0,19.082 15.468781,34.551 34.550781,34.551 19.082,0 34.5508,-15.469 34.5508,-34.551"
         style="fill:#ffffff;fill-opacity:1;fill-rule:nonzero;stroke:none"
         id="path38" /><path
         d="m 224.645,490.547 c 0,-19.082 -15.469,-34.555 -34.551,-34.555 -19.082,0 -34.551,15.473 -34.551,34.555 0,19.082 15.469,34.551 34.551,34.551 19.082,0 34.551,-15.469 34.551,-34.551"
         style="fill:#ffffff;fill-opacity:1;fill-rule:nonzero;stroke:none"
         id="path40" /><path
         d="m 377.047,490.547 c 0,-19.082 -15.469,-34.555 -34.551,-34.555 -19.082,0 -34.551,15.473 -34.551,34.555 0,19.082 15.469,34.551 34.551,34.551 19.082,0 34.551,-15.469 34.551,-34.551"
         style="fill:#ffffff;fill-opacity:1;fill-rule:nonzero;stroke:none"
         id="path42" /><path
         d="m 69.7383,341.336 c 0,-19.082 -15.4688,-34.551 -34.5508,-34.551 -19.082,0 -34.550781,15.469 -34.550781,34.551 0,19.082 15.468781,34.551 34.550781,34.551 19.082,0 34.5508,-15.469 34.5508,-34.551"
         style="fill:#ffffff;fill-opacity:1;fill-rule:nonzero;stroke:none"
         id="path44" /><path
         d="m 224.645,341.336 c 0,-19.082 -15.469,-34.551 -34.551,-34.551 -19.082,0 -34.551,15.469 -34.551,34.551 0,19.082 15.469,34.551 34.551,34.551 19.082,0 34.551,-15.469 34.551,-34.551"
         style="fill:#ffffff;fill-opacity:1;fill-rule:nonzero;stroke:none"
         id="path46" /><path
         d="m 377.047,341.336 c 0,-19.082 -15.469,-34.551 -34.551,-34.551 -19.082,0 -34.551,15.469 -34.551,34.551 0,19.082 15.469,34.551 34.551,34.551 19.082,0 34.551,-15.469 34.551,-34.551"
         style="fill:#ffffff;fill-opacity:1;fill-rule:nonzero;stroke:none"
         id="path48" /><path
         d="m 69.1016,182.957 c 0,-19.082 -15.4688,-34.551 -34.5508,-34.551 C 15.4688,148.406 0,163.875 0,182.957 c 0,19.082 15.4688,34.551 34.5508,34.551 19.082,0 34.5508,-15.469 34.5508,-34.551"
         style="fill:#ffffff;fill-opacity:1;fill-rule:nonzero;stroke:none"
         id="path50" /><path
         d="m 224.012,182.957 c 0,-19.082 -15.469,-34.551 -34.551,-34.551 -19.082,0 -34.551,15.469 -34.551,34.551 0,19.082 15.469,34.551 34.551,34.551 19.082,0 34.551,-15.469 34.551,-34.551"
         style="fill:#ffffff;fill-opacity:1;fill-rule:nonzero;stroke:none"
         id="path52" /><path
         d="m 377.047,182.957 c 0,-19.082 -15.469,-34.551 -34.551,-34.551 -19.082,0 -34.551,15.469 -34.551,34.551 0,19.082 15.469,34.551 34.551,34.551 19.082,0 34.551,-15.469 34.551,-34.551"
         style="fill:#ffffff;fill-opacity:1;fill-rule:nonzero;stroke:none"
         id="path54" /><path
         d="M 69.7383,34.5508 C 69.7383,15.4688 54.2695,0 35.1875,0 16.1055,0 0.636719,15.4688 0.636719,34.5508 c 0,19.0781 15.468781,34.5508 34.550781,34.5508 19.082,0 34.5508,-15.4727 34.5508,-34.5508"
         style="fill:#ffffff;fill-opacity:1;fill-rule:nonzero;stroke:none"
         id="path56" /><path
         d="M 224.645,34.5508 C 224.645,15.4688 209.176,0 190.094,0 c -19.082,0 -34.551,15.4688 -34.551,34.5508 0,19.0781 15.469,34.5508 34.551,34.5508 19.082,0 34.551,-15.4727 34.551,-34.5508"
         style="fill:#ffffff;fill-opacity:1;fill-rule:nonzero;stroke:none"
         id="path58" /><path
         d="M 377.047,34.5508 C 377.047,15.4688 361.578,0 342.496,0 c -19.082,0 -34.551,15.4688 -34.551,34.5508 0,19.0781 15.469,34.5508 34.551,34.5508 19.082,0 34.551,-15.4727 34.551,-34.5508"
         style="fill:#ffffff;fill-opacity:1;fill-rule:nonzero;stroke:none"
         id="path60" /><path
         d="m 834.637,642.211 c 0,-19.082 -15.469,-34.551 -34.563,-34.551 -19.082,0 -34.551,15.469 -34.551,34.551 0,19.082 15.469,34.551 34.551,34.551 19.094,0 34.563,-15.469 34.563,-34.551"
         style="fill:#ffffff;fill-opacity:1;fill-rule:nonzero;stroke:none"
         id="path62" /><path
         d="m 986.91,642.211 c 0,-19.082 -15.469,-34.551 -34.551,-34.551 -19.082,0 -34.55,15.469 -34.55,34.551 0,19.082 15.468,34.551 34.55,34.551 19.082,0 34.551,-15.469 34.551,-34.551"
         style="fill:#ffffff;fill-opacity:1;fill-rule:nonzero;stroke:none"
         id="path64" /><path
         d="m 1136.44,642.211 c 0,-19.082 -15.47,-34.551 -34.55,-34.551 -19.08,0 -34.55,15.469 -34.55,34.551 0,19.082 15.47,34.551 34.55,34.551 19.08,0 34.55,-15.469 34.55,-34.551"
         style="fill:#ffffff;fill-opacity:1;fill-rule:nonzero;stroke:none"
         id="path66" /><path
         d="m 834.637,490.547 c 0,-19.082 -15.469,-34.555 -34.563,-34.555 -19.082,0 -34.551,15.473 -34.551,34.555 0,19.082 15.469,34.551 34.551,34.551 19.094,0 34.563,-15.469 34.563,-34.551"
         style="fill:#ffffff;fill-opacity:1;fill-rule:nonzero;stroke:none"
         id="path68" /><path
         d="m 986.91,490.547 c 0,-19.082 -15.469,-34.555 -34.551,-34.555 -19.082,0 -34.55,15.473 -34.55,34.555 0,19.082 15.468,34.551 34.55,34.551 19.082,0 34.551,-15.469 34.551,-34.551"
         style="fill:#ffffff;fill-opacity:1;fill-rule:nonzero;stroke:none"
         id="path70" /><path
         d="m 1136.44,490.547 c 0,-19.082 -15.47,-34.555 -34.55,-34.555 -19.08,0 -34.55,15.473 -34.55,34.555 0,19.082 15.47,34.551 34.55,34.551 19.08,0 34.55,-15.469 34.55,-34.551"
         style="fill:#ffffff;fill-opacity:1;fill-rule:nonzero;stroke:none"
         id="path72" /><path
         d="m 834.637,341.336 c 0,-19.082 -15.469,-34.551 -34.563,-34.551 -19.082,0 -34.551,15.469 -34.551,34.551 0,19.082 15.469,34.551 34.551,34.551 19.094,0 34.563,-15.469 34.563,-34.551"
         style="fill:#ffffff;fill-opacity:1;fill-rule:nonzero;stroke:none"
         id="path74" /><path
         d="m 986.91,341.336 c 0,-19.082 -15.469,-34.551 -34.551,-34.551 -19.082,0 -34.55,15.469 -34.55,34.551 0,19.082 15.468,34.551 34.55,34.551 19.082,0 34.551,-15.469 34.551,-34.551"
         style="fill:#ffffff;fill-opacity:1;fill-rule:nonzero;stroke:none"
         id="path76" /><path
         d="m 1136.44,341.336 c 0,-19.082 -15.47,-34.551 -34.55,-34.551 -19.08,0 -34.55,15.469 -34.55,34.551 0,19.082 15.47,34.551 34.55,34.551 19.08,0 34.55,-15.469 34.55,-34.551"
         style="fill:#ffffff;fill-opacity:1;fill-rule:nonzero;stroke:none"
         id="path78" /><path
         d="m 834.637,182.957 c 0,-19.082 -15.469,-34.551 -34.563,-34.551 -19.082,0 -34.551,15.469 -34.551,34.551 0,19.082 15.469,34.551 34.551,34.551 19.094,0 34.563,-15.469 34.563,-34.551"
         style="fill:#ffffff;fill-opacity:1;fill-rule:nonzero;stroke:none"
         id="path80" /><path
         d="m 986.277,182.957 c 0,-19.082 -15.468,-34.551 -34.55,-34.551 -19.082,0 -34.551,15.469 -34.551,34.551 0,19.082 15.469,34.551 34.551,34.551 19.082,0 34.55,-15.469 34.55,-34.551"
         style="fill:#ffffff;fill-opacity:1;fill-rule:nonzero;stroke:none"
         id="path82" /><path
         d="m 1135.81,182.957 c 0,-19.082 -15.47,-34.551 -34.55,-34.551 -19.09,0 -34.55,15.469 -34.55,34.551 0,19.082 15.46,34.551 34.55,34.551 19.08,0 34.55,-15.469 34.55,-34.551"
         style="fill:#ffffff;fill-opacity:1;fill-rule:nonzero;stroke:none"
         id="path84" /><path
         d="M 834.637,34.5508 C 834.637,15.4688 819.168,0 800.074,0 c -19.082,0 -34.551,15.4688 -34.551,34.5508 0,19.0781 15.469,34.5508 34.551,34.5508 19.094,0 34.563,-15.4727 34.563,-34.5508"
         style="fill:#ffffff;fill-opacity:1;fill-rule:nonzero;stroke:none"
         id="path86" /><path
         d="M 986.91,34.5508 C 986.91,15.4688 971.441,0 952.359,0 c -19.082,0 -34.55,15.4688 -34.55,34.5508 0,19.0781 15.468,34.5508 34.55,34.5508 19.082,0 34.551,-15.4727 34.551,-34.5508"
         style="fill:#ffffff;fill-opacity:1;fill-rule:nonzero;stroke:none"
         id="path88" /><path
         d="M 1136.44,34.5508 C 1136.44,15.4688 1120.97,0 1101.89,0 c -19.08,0 -34.55,15.4688 -34.55,34.5508 0,19.0781 15.47,34.5508 34.55,34.5508 19.08,0 34.55,-15.4727 34.55,-34.5508"
         style="fill:#ffffff;fill-opacity:1;fill-rule:nonzero;stroke:none"
         id="path90" /><path
         d="m 69.7383,951.98 c 0,-19.082 -15.4688,-34.55 -34.5508,-34.55 -19.082,0 -34.550781,15.468 -34.550781,34.55 0,19.083 15.468781,34.551 34.550781,34.551 19.082,0 34.5508,-15.468 34.5508,-34.551"
         style="fill:#ffffff;fill-opacity:1;fill-rule:nonzero;stroke:none"
         id="path92" /><path
         d="m 1150.4,793.047 c 0,-26.715 -21.66,-48.375 -48.37,-48.375 -26.72,0 -48.37,21.66 -48.37,48.375 0,26.711 21.65,48.367 48.37,48.367 26.71,0 48.37,-21.656 48.37,-48.367"
         style="fill:#ffffff;fill-opacity:1;fill-rule:nonzero;stroke:none"
         id="path94" /><path
         d="m 530.012,1101.85 c 0,-19.08 -15.469,-34.55 -34.551,-34.55 -19.082,0 -34.551,15.47 -34.551,34.55 0,19.08 15.469,34.55 34.551,34.55 19.082,0 34.551,-15.47 34.551,-34.55"
         style="fill:#ffffff;fill-opacity:1;fill-rule:nonzero;stroke:none"
         id="path96" /><path
         d="m 377.047,1101.36 c 0,-19.08 -15.469,-34.55 -34.551,-34.55 -19.082,0 -34.551,15.47 -34.551,34.55 0,19.08 15.469,34.55 34.551,34.55 19.082,0 34.551,-15.47 34.551,-34.55"
         style="fill:#ffffff;fill-opacity:1;fill-rule:nonzero;stroke:none"
         id="path98" /><path
         d="m 224.645,1101.36 c 0,-19.08 -15.469,-34.55 -34.551,-34.55 -19.082,0 -34.551,15.47 -34.551,34.55 0,19.08 15.469,34.55 34.551,34.55 19.082,0 34.551,-15.47 34.551,-34.55"
         style="fill:#ffffff;fill-opacity:1;fill-rule:nonzero;stroke:none"
         id="path100" /><path
         d="m 69.7383,1101.85 c 0,-19.08 -15.4688,-34.55 -34.5508,-34.55 -19.082,0 -34.550781,15.47 -34.550781,34.55 0,19.08 15.468781,34.55 34.550781,34.55 19.082,0 34.5508,-15.47 34.5508,-34.55"
         style="fill:#ffffff;fill-opacity:1;fill-rule:nonzero;stroke:none"
         id="path102" /><path
         d="M 530.012,34.5508 C 530.012,15.4688 514.543,0 495.461,0 476.379,0 460.91,15.4688 460.91,34.5508 c 0,19.0781 15.469,34.5508 34.551,34.5508 19.082,0 34.551,-15.4727 34.551,-34.5508"
         style="fill:#ffffff;fill-opacity:1;fill-rule:nonzero;stroke:none"
         id="path104" /><path
         d="m 723.531,951.98 c 0,-41.98 -34.031,-76.011 -76.015,-76.011 -41.973,0 -76.004,34.031 -76.004,76.011 0,41.985 34.031,76.01 76.004,76.01 41.984,0 76.015,-34.025 76.015,-76.01"
         style="fill:#ffffff;fill-opacity:1;fill-rule:nonzero;stroke:none"
         id="path106" /><path
         d="m 730.445,793.047 c 0,-45.797 -37.129,-82.926 -82.929,-82.926 -45.789,0 -82.918,37.129 -82.918,82.926 0,45.793 37.129,82.922 82.918,82.922 45.8,0 82.929,-37.129 82.929,-82.922"
         style="fill:#ffffff;fill-opacity:1;fill-rule:nonzero;stroke:none"
         id="path108" /><path
         d="m 726.988,642.211 c 0,-43.895 -35.574,-79.469 -79.472,-79.469 -43.887,0 -79.461,35.574 -79.461,79.469 0,43.887 35.574,79.469 79.461,79.469 43.898,0 79.472,-35.582 79.472,-79.469"
         style="fill:#ffffff;fill-opacity:1;fill-rule:nonzero;stroke:none"
         id="path110" /><path
         d="m 723.531,490.547 c 0,-41.984 -34.031,-76.008 -76.015,-76.008 -41.973,0 -76.004,34.024 -76.004,76.008 0,41.98 34.031,76.016 76.004,76.016 41.984,0 76.015,-34.036 76.015,-76.016"
         style="fill:#ffffff;fill-opacity:1;fill-rule:nonzero;stroke:none"
         id="path112" /><path
         d="m 720.074,341.336 c 0,-40.066 -32.48,-72.559 -72.558,-72.559 -40.067,0 -72.555,32.493 -72.555,72.559 0,40.078 32.488,72.559 72.555,72.559 40.078,0 72.558,-32.481 72.558,-72.559"
         style="fill:#ffffff;fill-opacity:1;fill-rule:nonzero;stroke:none"
         id="path114" /><path
         d="m 713.172,182.957 c 0,-36.262 -29.395,-65.648 -65.656,-65.648 -36.25,0 -65.645,29.386 -65.645,65.648 0,36.262 29.395,65.645 65.645,65.645 36.261,0 65.656,-29.383 65.656,-65.645"
         style="fill:#ffffff;fill-opacity:1;fill-rule:nonzero;stroke:none"
         id="path116" /><path
         d="m 682.066,1101.85 c 0,-19.08 -15.468,-34.55 -34.55,-34.55 -19.082,0 -34.551,15.47 -34.551,34.55 0,19.08 15.469,34.55 34.551,34.55 19.082,0 34.55,-15.47 34.55,-34.55"
         style="fill:#ffffff;fill-opacity:1;fill-rule:nonzero;stroke:none"
         id="path118" /><path
         d="m 834.637,1101.85 c 0,-19.08 -15.469,-34.55 -34.563,-34.55 -19.082,0 -34.551,15.47 -34.551,34.55 0,19.08 15.469,34.55 34.551,34.55 19.094,0 34.563,-15.47 34.563,-34.55"
         style="fill:#ffffff;fill-opacity:1;fill-rule:nonzero;stroke:none"
         id="path120" /><path
         d="m 986.91,1101.85 c 0,-19.08 -15.469,-34.55 -34.551,-34.55 -19.082,0 -34.55,15.47 -34.55,34.55 0,19.08 15.468,34.55 34.55,34.55 19.082,0 34.551,-15.47 34.551,-34.55"
         style="fill:#ffffff;fill-opacity:1;fill-rule:nonzero;stroke:none"
         id="path122" /><path
         d="m 1136.44,1101.85 c 0,-19.08 -15.47,-34.55 -34.55,-34.55 -19.08,0 -34.55,15.47 -34.55,34.55 0,19.08 15.47,34.55 34.55,34.55 19.08,0 34.55,-15.47 34.55,-34.55"
         style="fill:#ffffff;fill-opacity:1;fill-rule:nonzero;stroke:none"
         id="path124" /><path
         d="M 682.066,34.5508 C 682.066,15.4688 666.598,0 647.516,0 c -19.082,0 -34.551,15.4688 -34.551,34.5508 0,19.0781 15.469,34.5508 34.551,34.5508 19.082,0 34.55,-15.4727 34.55,-34.5508"
         style="fill:#ffffff;fill-opacity:1;fill-rule:nonzero;stroke:none"
         id="path126" /><path
         d="m 408.145,793.047 c 0,-36.258 -29.395,-65.652 -65.649,-65.652 -36.254,0 -65.644,29.394 -65.644,65.652 0,36.254 29.39,65.648 65.644,65.648 36.254,0 65.649,-29.394 65.649,-65.648"
         style="fill:#ffffff;fill-opacity:1;fill-rule:nonzero;stroke:none"
         id="path128" /><path
         d="m 408.145,951.98 c 0,-36.253 -29.395,-65.648 -65.649,-65.648 -36.254,0 -65.644,29.395 -65.644,65.648 0,36.254 29.39,65.65 65.644,65.65 36.254,0 65.649,-29.396 65.649,-65.65"
         style="fill:#ffffff;fill-opacity:1;fill-rule:nonzero;stroke:none"
         id="path130" /><path
         d="m 865.73,793.047 c 0,-36.258 -29.394,-65.652 -65.656,-65.652 -36.25,0 -65.644,29.394 -65.644,65.652 0,36.254 29.394,65.648 65.644,65.648 36.262,0 65.656,-29.394 65.656,-65.648"
         style="fill:#ffffff;fill-opacity:1;fill-rule:nonzero;stroke:none"
         id="path132" /><path
         d="m 1014.56,951.98 c 0,-34.343 -27.853,-62.191 -62.201,-62.191 -34.343,0 -62.187,27.848 -62.187,62.191 0,34.344 27.844,62.19 62.187,62.19 34.348,0 62.201,-27.846 62.201,-62.19"
         style="fill:#ffffff;fill-opacity:1;fill-rule:nonzero;stroke:none"
         id="path134" /><path
         d="m 1150.26,951.98 c 0,-26.714 -21.65,-48.375 -48.37,-48.375 -26.72,0 -48.37,21.661 -48.37,48.375 0,26.715 21.65,48.37 48.37,48.37 26.72,0 48.37,-21.655 48.37,-48.37"
         style="fill:#ffffff;fill-opacity:1;fill-rule:nonzero;stroke:none"
         id="path136" /><path
         d="m 865.73,951.98 c 0,-36.253 -29.394,-65.648 -65.656,-65.648 -36.25,0 -65.644,29.395 -65.644,65.648 0,36.254 29.394,65.65 65.644,65.65 36.262,0 65.656,-29.396 65.656,-65.65"
         style="fill:#ffffff;fill-opacity:1;fill-rule:nonzero;stroke:none"
         id="path138" /></g></g></svg>
